<?xml version="1.0" encoding="utf-8"?>
<!-- Generator: Adobe Illustrator 21.1.0, SVG Export Plug-In . SVG Version: 6.00 Build 0)  -->
<svg version="1.1" id="Layer_1" xmlns="http://www.w3.org/2000/svg" xmlns:xlink="http://www.w3.org/1999/xlink" x="0px" y="0px"
	 viewBox="0 0 200 77.7" style="enable-background:new 0 0 200 77.7;" xml:space="preserve">
<style type="text/css">
	.st0{font-family:'HelveticaNeue-Italic';}
	.st1{font-size:20.1025px;}
</style>
<g>
	<g>
		<g>
			<path d="M151.9,53.5l-2,2.3l-0.6-0.5l2-2.3c-0.3-0.3-0.6-0.6-0.9-0.8l0.5-0.5c0.8,0.7,1.5,1.3,2.3,2l-0.4,0.5
				C152.6,54,152.3,53.8,151.9,53.5 M148,47.7l-3.2,1.9c0.1,0.2,0.2,0.5,0.4,0.7l3.2-1.9C148.2,48.1,148.1,47.9,148,47.7 M150,50.7
				l-1.7,1.5l0.9-2.6c-0.2-0.2-0.2-0.4-0.4-0.6l-3.1,2.1c0.1,0.2,0.3,0.4,0.5,0.6l1.9-1.3l-0.9,2.6c0.2,0.2,0.3,0.4,0.5,0.6l2.9-2.5
				C150.4,51,150.2,50.9,150,50.7 M154.3,55.3c0.5,0.3,1,0.6,1.6,0.8l0.3-0.6c-0.8-0.4-1.5-0.8-2.1-1.3l-2.1,3.1
				c0.8,0.5,1.5,1,2.4,1.4l0.3-0.5l-1.7-1l0.6-0.8l1.1,0.7l0.3-0.5c-0.4-0.2-0.7-0.4-1.1-0.7L154.3,55.3z M164.7,43.7
				c-2.9,0-5.3-2.4-5.3-5.3c0-2.9,2.4-5.3,5.3-5.3c2.9,0,5.3,2.4,5.3,5.3C170,41.3,167.6,43.7,164.7,43.7 M164.8,41.9
				c1.9,0,3.5-1.6,3.5-3.5c0-1.6-1.1-3-2.7-3.4c0-0.2-0.1-0.9-0.1-0.9h-1.8c0,0,0,0.8-0.1,1c-1.5,0.4-2.5,1.8-2.5,3.3
				C161.3,40.3,162.9,41.9,164.8,41.9 M157,18.3v-0.2c0-1,0.7-1.8,1.7-1.8c1-0.1,1.9,0.7,2,1.7v0.1c0,1-0.7,1.8-1.7,1.9
				C158,20.1,157.1,19.4,157,18.3 M157.7,18.3c0.1,0.7,0.6,1.1,1.3,1.1c0.6-0.1,1.1-0.6,1.1-1.2c0,0,0-0.1,0-0.1
				c-0.1-0.7-0.6-1.1-1.3-1.1c-0.6,0-1.1,0.5-1.1,1.2V18.3z M165.4,19.2c-0.3,0-0.5,0-0.8,0l0.9-1.9l0.8-1.7l0.8,0.1l0.4,1.7
				l0.6,2.2c-0.3-0.1-0.5-0.1-0.8-0.1l-0.2-0.7c-0.6-0.1-1-0.1-1.6-0.1L165.4,19.2z M166,17.9c0.4,0,0.8,0.1,1.2,0.1l-0.2-0.8
				l-0.3-0.8l-0.4,0.8L166,17.9z M162.3,16.3l0.3,3l0.8-0.1l-0.3-3l1.2-0.1l0-0.7c-1.3,0.1-1.9,0.1-3.2,0.3l0.1,0.6L162.3,16.3z
				 M162.4,57.4l-0.3,2.3l-1.1-2.5c-0.3,0-0.4-0.1-0.7-0.2l-0.9,3.7c0.3,0.1,0.5,0.1,0.8,0.1l0.5-2.3l1.1,2.5c0.3,0,0.5,0.1,0.8,0.1
				l0.4-3.8C162.9,57.4,162.7,57.5,162.4,57.4 M184,49.5l-2.7-1.5l-0.3,0.6l3.3,1.8l1.3-2.3l-0.6-0.3L184,49.5z M179.9,50.1l3.7,1.2
				c-0.1,0.1-0.2,0.2-0.2,0.3c-0.1,0.1-0.1,0.2-0.2,0.3l-0.7-0.2l-1,1.3l0.4,0.6c-0.2,0.2-0.3,0.4-0.5,0.5l-1.5-2.4l-0.5-0.9
				L179.9,50.1z M180.3,50.9l0.4,0.7l0.4,0.7l0.5-0.7l0.1-0.2L180.3,50.9z M176.4,55.9c0.2,0.3,0.2,0.6,0.2,0.9
				c0,0.3-0.1,0.5-0.2,0.8c-0.2,0.3-0.4,0.7-0.8,0.9c-0.9,0.5-2,0.2-2.5-0.7c0-0.1,0-0.1-0.1-0.2c-0.1-0.2-0.2-0.5-0.2-0.8
				c0-0.7,0.3-1.3,0.9-1.6C174.7,54.7,175.9,55,176.4,55.9 M176,56.8c0-0.2-0.1-0.4-0.2-0.6c-0.3-0.6-1-0.8-1.6-0.4
				c-0.4,0.2-0.6,0.6-0.6,1c0,0.2,0.1,0.4,0.2,0.6c0,0.1,0.1,0.1,0.1,0.2c0.4,0.4,1,0.5,1.5,0.2c0.1-0.1,0.2-0.2,0.3-0.2
				C175.9,57.4,176,57.1,176,56.8 M177.8,52.4l1.5,1.7l-2.6-0.8c-0.2,0.2-0.4,0.2-0.6,0.4l2.3,3c0.2-0.1,0.4-0.3,0.6-0.5l-1.4-1.8
				l2.6,0.8c0.2-0.2,0.4-0.3,0.6-0.6l-2.6-2.8C178.1,52,178,52.2,177.8,52.4 M194.4,38.4c0,0.3,0,0.7-0.1,1l0,0.1l-0.1,0
				c-1.3,0.8-2.9,1.2-4.5,1.2c0,0.2-0.2,1.7-0.2,1.9c1.5,0.4,3,1.3,4,2.3l0,0.1v0.1c-0.1,0.6-0.3,1.4-0.5,1.9l0,0.1l-0.1,0
				c-1.4,0.4-3.1,0.4-4.7,0c-0.1,0.2-0.6,1.6-0.7,1.8c1.4,0.9,2.6,2,3.2,3.3l0,0.1l0,0.1c-0.2,0.5-0.6,1.2-1,1.7l0,0.1h-0.1
				c-1.5,0-3.1-0.4-4.5-1.2c-0.1,0.2-1.1,1.4-1.2,1.6c1.1,1.2,2,2.6,2.3,4.1l0,0.1l0,0.1c-0.3,0.4-0.9,1-1.4,1.4l-0.1,0l-0.1,0
				c-1.4-0.4-2.9-1.2-4-2.3c-0.2,0.1-1.3,1-1.5,1.2c0.8,1.4,1.2,3,1.2,4.4v0.2l-0.1,0c-0.4,0.3-1.2,0.8-1.7,1l-0.1,0l-0.1,0
				c-1.3-0.7-2.5-1.9-3.3-3.3c-0.2,0.1-1.6,0.7-1.8,0.8c0.2,0.8,0.3,1.6,0.3,2.4c0,0.8-0.1,1.6-0.3,2.3l0,0.1l-0.1,0
				c-0.5,0.2-1.3,0.4-1.9,0.5l-0.1,0l0-0.1c-1.1-1-1.9-2.5-2.4-4c-0.2,0-1.7,0.2-1.9,0.3c0,1.6-0.5,3.2-1.2,4.5l0,0.1l-0.1,0
				c-0.5,0.1-1.3,0.1-1.9,0l-0.1,0l-0.1-0.1c-0.7-1.3-1.2-2.9-1.2-4.5c-0.2,0-1.8-0.2-2-0.3c-0.4,1.5-1.3,3-2.3,4l-0.1,0.1l-0.1,0
				c-0.6-0.1-1.3-0.3-1.9-0.5l-0.1,0l0-0.1c-0.2-0.7-0.3-1.5-0.3-2.3c0-0.8,0.1-1.6,0.3-2.3c-0.2-0.1-1.6-0.6-1.7-0.7
				c-0.8,1.4-2,2.6-3.3,3.3l-0.1,0l-0.1,0c-0.5-0.2-1.2-0.6-1.7-1l-0.1-0.1v-0.2c0-1.5,0.4-3.1,1.2-4.4c-0.2-0.1-1.4-1.1-1.6-1.2
				c-1.2,1.1-2.6,2-4,2.3l-0.1,0l-0.1-0.1c-0.4-0.4-1-0.9-1.3-1.4l0-0.1l0-0.1c0.4-1.4,1.2-2.9,2.3-4c-0.1-0.2-1.1-1.4-1.2-1.6
				c-1.4,0.8-3.1,1.2-4.5,1.2h-0.1l-0.1,0c-0.3-0.5-0.7-1.2-1-1.7l0-0.1l0-0.1c0.7-1.3,1.9-2.5,3.3-3.3c-0.1-0.2-0.7-1.6-0.8-1.8
				c-1.6,0.4-3.2,0.4-4.7,0l-0.1,0l0-0.1c-0.2-0.5-0.4-1.3-0.5-1.9l0-0.1L136,45c1-1.1,2.5-1.9,4.1-2.4c0-0.2-0.2-1.8-0.3-2
				c-1.6,0-3.3-0.4-4.5-1.2l-0.1,0l0-0.1c0-0.3,0-0.6,0-1c0-0.3,0-0.7,0-1l0-0.1l0.1,0c1.3-0.8,2.9-1.2,4.5-1.2
				c0-0.2,0.2-1.7,0.3-1.9c-1.5-0.4-3-1.3-4.1-2.3l0-0.1l0-0.1c0.1-0.6,0.3-1.4,0.5-1.9l0-0.1l0.1,0c1.4-0.4,3.1-0.4,4.7,0
				c0.1-0.2,0.7-1.6,0.7-1.8c-1.4-0.8-2.6-2-3.3-3.3l0-0.1l0-0.1c0.2-0.5,0.6-1.2,1-1.6l0.1-0.1h0.1c1.5,0,3.1,0.4,4.5,1.2
				c0.1-0.2,1.1-1.5,1.2-1.6c-1.1-1.2-2-2.6-2.3-4.1l0-0.1l0-0.1c0.4-0.4,0.9-1,1.4-1.4l0.1,0l0.1,0c1.5,0.4,2.9,1.2,4.1,2.3
				c0.2-0.1,1.3-1,1.5-1.1c-0.8-1.4-1.2-3-1.2-4.4v-0.2l0.1-0.1c0.4-0.3,1.2-0.7,1.7-1l0.1,0l0.1,0c1.3,0.7,2.5,1.9,3.3,3.3
				c0.2-0.1,1.7-0.7,1.9-0.8c-0.2-0.8-0.3-1.6-0.3-2.3c0-0.8,0.1-1.6,0.3-2.3l0-0.1l0.1,0c0.5-0.2,1.3-0.4,1.8-0.5l0.1,0l0.1,0.1
				c1.1,1,1.9,2.5,2.3,4.1c0.2,0,1.8-0.2,2-0.3c0-1.6,0.5-3.2,1.2-4.5l0-0.1l0.1,0c0.6-0.1,1.4-0.1,1.9,0l0.1,0l0,0.1
				c0.8,1.3,1.2,2.9,1.2,4.5c0.2,0.1,1.8,0.2,2,0.3c0.5-1.6,1.3-3,2.4-4l0-0.1l0.1,0c0.6,0.1,1.4,0.3,1.9,0.5l0.1,0l0,0.1
				c0.2,0.7,0.3,1.5,0.3,2.3c0,0.8-0.1,1.6-0.3,2.4c0.2,0.1,1.7,0.7,1.9,0.8c0.8-1.4,2-2.6,3.3-3.3l0.1,0l0.1,0
				c0.5,0.2,1.2,0.6,1.7,1l0.1,0v0.2c0,1.5-0.5,3.1-1.2,4.4c0.2,0.1,1.4,1.1,1.6,1.2c1.2-1.1,2.6-2,4.1-2.3l0.1,0l0.1,0.1
				c0.4,0.3,1,0.9,1.4,1.4l0.1,0.1l0,0.1c-0.4,1.4-1.2,2.9-2.3,4.1c0.1,0.2,1,1.4,1.2,1.6c1.4-0.8,3.1-1.2,4.5-1.2h0.1l0,0.1
				c0.4,0.5,0.8,1.2,1,1.6l0,0.1l0,0.1c-0.7,1.3-1.9,2.5-3.3,3.3c0.1,0.2,0.6,1.6,0.7,1.8c1.5-0.4,3.2-0.4,4.6,0l0.1,0l0,0.1
				c0.2,0.5,0.4,1.3,0.5,1.9l0,0.1l-0.1,0.1c-1,1.1-2.5,1.9-4.1,2.3c0,0.2,0.2,1.7,0.3,1.9c1.6,0,3.2,0.5,4.5,1.2l0.1,0l0,0.1
				C194.4,37.7,194.4,38.1,194.4,38.4 M149.8,21.1l2.4,2.7c0.3,0.4,0.7,0.3,1.2-0.1c3.1-2.4,7-3.8,11.2-3.8c4.2,0,8.2,1.4,11.3,3.8
				c0.5,0.4,0.8,0.4,1.2,0.1l2.4-2.7c0.3-0.3,0.3-0.7-0.3-1.2c-4.1-3.2-9.1-5.1-14.7-5.1c-5.5,0-10.6,2-14.6,5.2
				C149.5,20.4,149.6,20.8,149.8,21.1 M150,32.5c-0.3-0.2-0.6-0.4-0.8-0.3c-0.2,0.1-0.3,0.3-0.4,0.6c-1.1,3.9-1.1,7.2,0,11.1
				c0.1,0.3,0.2,0.5,0.4,0.6c0.2,0.1,0.5,0,0.8-0.2l7.5-5.1c0.3-0.2,0.4-0.5,0.4-0.7c0-0.3-0.2-0.5-0.4-0.7L150,32.5z M151.7,28
				c0,0.3,0.3,0.4,0.6,0.5l8.2,4c0.3,0.2,0.6,0.2,0.9,0c0.2-0.2,0.4-0.4,0.4-0.8l0.7-9.1c0-0.4,0-0.7-0.2-0.8
				c-0.2-0.1-0.4-0.1-0.7-0.1c-3.9,0.9-6.8,2.6-9.6,5.6C151.7,27.6,151.6,27.8,151.7,28 M151.8,48.9c0,0.2,0.1,0.4,0.3,0.6
				c2.8,3,5.7,4.6,9.6,5.6c0.3,0.1,0.5,0.1,0.7,0c0.2-0.1,0.2-0.4,0.2-0.8c0,0-0.7-9.1-0.7-9.1c0-0.3-0.2-0.6-0.4-0.7
				c-0.2-0.1-0.6-0.1-0.9,0l-8.2,4C152.1,48.4,151.8,48.5,151.8,48.9C151.8,48.8,151.8,48.8,151.8,48.9 M164.7,44.3
				c3.2,0,5.9-2.6,5.9-5.9c0-3.2-2.6-5.9-5.9-5.9c-3.2,0-5.9,2.7-5.9,5.9C158.8,41.6,161.5,44.3,164.7,44.3 M167.2,54.8
				c0.1,0.1,0.4,0.1,0.7,0.1c3.9-0.9,6.8-2.6,9.6-5.5c0.2-0.2,0.4-0.4,0.3-0.6c-0.1-0.2-0.2-0.4-0.6-0.6l-8.2-4
				c-0.3-0.1-0.6-0.1-0.9,0c-0.2,0.2-0.4,0.4-0.4,0.8L167,54C167,54.3,167,54.6,167.2,54.8 M179.5,44.2c0.2,0.2,0.5,0.4,0.8,0.3
				c0.2-0.1,0.3-0.2,0.4-0.6c1.2-3.9,1.2-7.2,0-11.1c-0.1-0.2-0.2-0.5-0.4-0.6c-0.2-0.1-0.5,0-0.8,0.3l-7.5,5.1
				c-0.3,0.2-0.4,0.5-0.4,0.7c0,0.3,0.1,0.5,0.4,0.7L179.5,44.2z M177.8,27.9c0-0.2-0.1-0.4-0.3-0.6c-2.8-3-5.7-4.6-9.6-5.6
				c-0.2-0.1-0.5-0.1-0.6,0c-0.2,0.1-0.2,0.4-0.2,0.8l0.7,9.1c0,0.3,0.2,0.6,0.4,0.8c0.3,0.1,0.6,0.1,0.9,0l8.2-4
				C177.5,28.4,177.8,28.2,177.8,27.9C177.8,27.9,177.8,27.9,177.8,27.9 M142.7,44.2l3.5-1c0.3-0.1,0.6-0.4,0.6-0.9
				c-1.3-6.5,0.3-11.8,4.2-16c0.4-0.3,0.4-0.8,0.1-1.2l-2.5-2.6c-0.2-0.3-0.7-0.3-1.1,0.1c-4.9,5.1-7.3,13-5.5,21.1
				C141.9,44,142.2,44.3,142.7,44.2 M186.2,46.1l-3.5-1.2c-0.2-0.1-0.7-0.1-0.9,0.5c-2.8,6.8-9.4,11.5-17.1,11.5
				c-7.7,0-14.4-4.8-17.1-11.6c-0.2-0.5-0.7-0.5-0.9-0.4l-3.5,1.2c-0.4,0.1-0.6,0.5-0.4,1c3.4,8.8,12,14.9,21.9,14.9
				c9.9,0,18.5-6.2,21.9-15C186.8,46.5,186.6,46.2,186.2,46.1 M182.2,22.5c-0.3-0.4-0.9-0.4-1.1-0.1l-2.5,2.5c-0.4,0.4-0.3,1,0,1.2
				c3.8,4.2,5.4,9.5,4.2,16c0,0.4,0.2,0.8,0.6,0.9l3.5,1c0.5,0.1,0.8-0.2,0.9-0.6C189.5,35.6,187,27.7,182.2,22.5 M174,21.6l0.8-1.6
				l2.2-1c-0.2-0.2-0.5-0.3-0.7-0.4l-1.5,0.7l-0.3-1.6c-0.3-0.1-0.5-0.2-0.8-0.3l0.4,2.4l-0.8,1.5L174,21.6z M169.9,56.9
				c-1.1,0.2-1.9,0.4-3,0.6l0.1,0.6c0.4-0.1,0.8-0.1,1.2-0.2l0.5,3l0.8-0.2l-0.6-3c0.4-0.1,0.8-0.2,1.2-0.3L169.9,56.9z M159.2,57.4
				v0.2c-0.1,0.5-0.4,1-0.9,1.1l0.1,1.7c-0.3-0.1-0.5-0.1-0.8-0.3l0-1.6l-0.7-0.3l-0.6,1.4c-0.2-0.1-0.5-0.2-0.7-0.3l0.8-1.8
				l0.1-0.2l0.6-1.4l1.7,0.6C159,56.7,159.2,57.1,159.2,57.4 M158.5,57.4c0-0.1-0.1-0.2-0.2-0.2l-0.9-0.3l-0.2,0.6l-0.1,0.2l0,0
				l0.9,0.3c0.2,0.1,0.5-0.1,0.5-0.3C158.5,57.5,158.5,57.5,158.5,57.4 M169.9,19.9c-0.3-0.1-0.5-0.1-0.8-0.2l0.6-2.1l0.4-1.5
				c0.6,0.2,1.2,0.4,1.9,0.6c0.3,0.1,0.5,0.5,0.6,0.9c0,0.6-0.3,1.2-0.8,1.3l0.2,1.7c-0.3-0.1-0.5-0.2-0.8-0.3l-0.2-1.5l-0.7-0.2
				L169.9,19.9z M170.4,17.9l0.8,0.3c0.2,0.1,0.5-0.3,0.5-0.6c0-0.1-0.1-0.3-0.2-0.3c-0.3-0.1-0.5-0.2-0.9-0.3l-0.2,0.6L170.4,17.9z
				 M166.3,59.2l0.8,2c-0.3,0-0.5,0-0.7,0.1l-0.2-0.6l-1.6,0l-0.2,0.7c-0.3,0-0.5,0-0.8,0l0.7-2.1l0.5-1.6l0,0l0.8,0l0,0.1
				L166.3,59.2z M165.8,59.9l-0.3-0.7l-0.3-0.8l-0.3,0.8l-0.2,0.8L165.8,59.9z M170.8,56.5l1.2,3.5c0.2-0.1,0.5-0.2,0.7-0.3
				l-1.2-3.5C171.2,56.4,171.1,56.5,170.8,56.5 M152.8,19.3l-0.2-0.4c0.5-0.3,1.1-0.6,1.7-0.9c0.7-0.4,1.6,0.5,1.5,1.3
				c0,0.1-0.1,0.3-0.1,0.4l1.4,1c-0.3,0.1-0.5,0.2-0.8,0.4l-1.2-0.9l-0.7,0.4l0.7,1.2c-0.3,0.2-0.4,0.3-0.7,0.5L152.8,19.3z
				 M153.7,19.2l0.1,0.2l0.4,0.7l0.8-0.4c0.1,0,0.1-0.1,0.1-0.2c0-0.4-0.2-0.8-0.6-0.6C154.2,18.9,154,19,153.7,19.2"/>
			<g>
				<path d="M115,45l0.1,2.1c0,0.3-0.2,0.6-0.5,0.7c-1.2,0.2-3.2,0.7-5.2,0.7c-5.2,0-7.6-2.7-7.6-8.7h0c0,0,0-0.1,0-0.1
					c0-6,2.3-8.7,7.6-8.7c1.9,0,3.9,0.5,5.2,0.6c0.3,0,0.6,0.3,0.5,0.7l-0.1,2.1c0,0.2-0.1,0.3-0.2,0.5c-0.1,0.1-0.3,0.2-0.5,0.2
					c-1.4-0.1-3.1-0.5-4.9-0.5c-2.7,0-3.7,1.4-3.7,5.2c0,0.1,0,0.3,0,0.4c0,0.1,0,0.2,0,0.3c0,0.1,0,0.2,0,0.4c0,0.1,0,0.2,0,0.3
					c0,0.1,0,0.1,0,0.2c0.2,2.8,1.3,3.8,3.6,3.8c1.8,0,3.5-0.4,4.9-0.5c0.2,0,0.4,0,0.5,0.2C114.9,44.6,115,44.8,115,45 M82.4,31.1
					c-1.7,0.1-3.4,1.1-4.4,1.8v-1c0-0.4-0.3-0.6-0.6-0.6h-2.6c-0.4,0-0.6,0.3-0.6,0.6v15.5c0,0.4,0.3,0.6,0.6,0.6h2.6
					c0.4,0,0.6-0.3,0.6-0.6V36.6c0.6-0.5,2.4-1.8,4.5-2c0.3,0,0.6-0.3,0.6-0.6v-2.3c0-0.2-0.1-0.3-0.2-0.5
					C82.8,31.1,82.6,31.1,82.4,31.1 M91.4,40.7c-1.5,0.1-2.2,0.8-2.2,2.2c0,0.8,0.2,2.2,1.7,2.2c1.8,0,4.2-0.7,4.2-0.7v-3.9
					L91.4,40.7z M99,36.5v11.2c0,0.2-0.1,0.4-0.2,0.5c-0.1,0.1-0.3,0.2-0.5,0.1c-1.3-0.2-1.9-0.6-2.5-1.1c0,0-2.9,1.2-5.5,1.2
					c-3.1,0-4.9-2-4.9-5.4c0-3.3,1.6-4.8,5.6-5.1l4.2-0.3v-1c0-1.3-0.8-2-2.1-2c-1.8,0-4.4,0.2-5.8,0.3c-0.2,0-0.3,0-0.5-0.2
					c-0.1-0.1-0.2-0.3-0.2-0.5l-0.1-2.1c0-0.3,0.2-0.6,0.5-0.7c1.2-0.2,4.3-0.6,6.3-0.6C97.1,30.8,99,32.6,99,36.5 M62.4,40.7
					c-1.5,0.1-2.2,0.8-2.2,2.2c0,0.8,0.2,2.2,1.7,2.2c1.8,0,4.2-0.7,4.2-0.7v-3.9L62.4,40.7z M70,36.5v11.2c0,0.2-0.1,0.4-0.2,0.5
					c-0.1,0.1-0.3,0.2-0.5,0.1c-1.3-0.2-1.9-0.6-2.5-1.1c0,0-2.9,1.2-5.5,1.2c-3.1,0-4.9-2-4.9-5.4c0-3.3,1.6-4.8,5.6-5.1l4.2-0.3
					v-1c0-1.3-0.8-2-2.1-2c-1.8,0-4.4,0.2-5.8,0.3c-0.2,0-0.3,0-0.5-0.2c-0.1-0.1-0.2-0.3-0.2-0.5l-0.1-2.1c0-0.3,0.2-0.6,0.5-0.7
					c1.2-0.2,4.3-0.6,6.3-0.6C68.1,30.8,70,32.6,70,36.5 M16.6,28.5h-1.4c-1.6,0-2.5,0.1-2.9,0.2v6.6c0.7,0.1,2.2,0.1,4.1,0.1
					c2.5,0,4.1-1.4,4.1-3.5C20.4,30.3,19.4,28.5,16.6,28.5 M24.7,47.1c0.1,0.2,0.1,0.4,0,0.6c-0.1,0.2-0.3,0.3-0.5,0.3h-3
					c-0.3,0-0.5-0.2-0.6-0.4L16.7,39c-1.9,0-3.5-0.1-4.4-0.2v8.5c0,0.4-0.3,0.6-0.6,0.6H8.9c-0.4,0-0.6-0.3-0.6-0.6V25.8
					c0-0.3,0.2-0.6,0.6-0.6c3.4-0.4,6.2-0.4,7.2-0.4c0.3,0,0.5,0,0.5,0c6.6,0,7.9,3.9,7.9,7.1c0,2.7-1.3,4.7-4,6L24.7,47.1z
					 M127.8,45.3l0.1,2.1c0,0.3-0.2,0.6-0.5,0.7c-0.9,0.2-2.1,0.4-2.9,0.4c-3.9,0-5.1-1.5-5.1-6.3v-7.4H118c-0.4,0-0.6-0.3-0.6-0.6
					v-2.2c0-0.4,0.3-0.6,0.6-0.6h1.5v-2.6c0-0.3,0.2-0.6,0.5-0.6l2.6-0.6c0.2,0,0.4,0,0.5,0.1c0.2,0.1,0.2,0.3,0.2,0.5v3.2h3.9
					c0.4,0,0.6,0.3,0.6,0.6V34c0,0.4-0.3,0.6-0.6,0.6h-3.9v6.9c0,2.4,0.1,3.2,1.8,3.2c0.6,0,1.6,0,2.1-0.1
					C127.5,44.7,127.8,44.9,127.8,45.3 M38.2,39.5c0-3.8-1-5.2-3.6-5.2c-2.7,0-3.7,1.4-3.7,5.2c0,3.5,0.6,5.4,3.7,5.4
					C37.6,44.9,38.2,42.9,38.2,39.5 M42.1,39.5c0,6.1-2.3,8.9-7.6,8.9c-5.2,0-7.6-2.7-7.6-8.9c0-6,2.3-8.7,7.6-8.7
					C39.7,30.8,42.1,33.6,42.1,39.5 M54.3,45.3l0.1,2.1c0,0.3-0.2,0.6-0.5,0.7c-0.9,0.2-2.1,0.4-2.9,0.4c-3.9,0-5.1-1.5-5.1-6.3
					v-7.4h-1.5c-0.4,0-0.6-0.3-0.6-0.6v-2.2c0-0.4,0.3-0.6,0.6-0.6h1.5v-2.6c0-0.3,0.2-0.6,0.5-0.6l2.6-0.6c0.2,0,0.4,0,0.5,0.1
					c0.2,0.1,0.2,0.3,0.2,0.5v3.2h3.9c0.4,0,0.6,0.3,0.6,0.6V34c0,0.4-0.3,0.6-0.6,0.6h-3.9v6.9c0,2.4,0.1,3.2,1.7,3.2
					c0.6,0,1.6,0,2.1-0.1C54,44.7,54.3,44.9,54.3,45.3"/>
			</g>
		</g>
		<g>
			<g>
				<path d="M8.7,57.5H11c1.6,0,2.8,0.5,2.8,2.3c0,1.7-1.3,2.7-2.9,2.8v0c0.9,0.1,1,0.7,1.1,1.3l1,4h-1L11.1,64
					c-0.2-0.8-0.6-1-1.4-1H8.5l-1,4.9h-1L8.7,57.5z M8.7,62h1.1c1.4,0,3.1-0.5,3.1-2.1c0-1.2-0.8-1.6-1.9-1.6H9.5L8.7,62z"/>
				<path d="M18.8,60.1c1.9,0,3,1.3,3,3.2c0,2.5-1.6,4.7-4.2,4.7c-1.9,0-3-1.4-3-3.3C14.6,62.2,16.2,60.1,18.8,60.1z M17.7,67.2
					c2,0,3-2.1,3-3.8c0-1.4-0.6-2.5-2.1-2.5c-2.1,0-3.1,2-3.1,4C15.6,66.1,16.4,67.2,17.7,67.2z"/>
				<path d="M24.8,58.6l1.1-0.4l-0.5,2.1h2l-0.2,0.8h-1.9l-0.8,3.7c-0.1,0.5-0.2,1-0.2,1.5c0,0.6,0.3,0.9,0.9,0.9
					c0.3,0,0.5-0.1,0.8-0.2l-0.1,0.8c-0.3,0.1-0.6,0.2-0.9,0.2c-1.1,0-1.6-0.6-1.6-1.4c0-0.7,0.3-1.8,0.3-2.2l0.7-3.3h-1.5l0.2-0.8
					h1.5L24.8,58.6z"/>
				<path d="M32.8,66c-0.1,0.6-0.3,1.3-0.3,1.8h-0.9c0-0.4,0.1-0.8,0.1-1.1h0C31,67.6,30.2,68,29.1,68c-1.2,0-2.2-0.9-2.2-2.1
					c0-2.2,2.5-2.7,4.3-2.7c0.4,0,0.7,0,1,0.1c0-0.2,0-0.4,0-0.8c0-1-0.6-1.6-1.6-1.6c-0.9,0-1.7,0.4-2.2,0.7l0.1-0.9
					c0.5-0.2,1.4-0.5,2.3-0.5c1.6,0,2.5,0.9,2.5,2.5c0,0.3-0.1,0.8-0.2,1.4L32.8,66z M29.4,67.2c1.7,0,2.5-1.6,2.8-3.2
					c-0.3,0-0.6,0-0.9,0c-1.3,0-3.3,0.2-3.3,1.9C27.9,66.7,28.7,67.2,29.4,67.2z"/>
				<path d="M35.6,61.6c0.1-0.4,0.2-0.9,0.2-1.3h0.9c0,0.5-0.1,0.9-0.2,1.1h0c0.5-0.7,1.1-1.3,2.1-1.3c0.3,0,0.6,0.1,0.8,0.1l-0.2,1
					c-0.3-0.1-0.5-0.1-0.8-0.1c-1.5,0-2.1,1.7-2.4,3l-0.8,3.7h-1L35.6,61.6z"/>
				<path d="M41.4,69.6c-0.5,0.9-1,1.4-2,1.4c-0.3,0-0.6,0-0.9-0.2l0.2-0.8c0.2,0.2,0.4,0.2,0.6,0.2c0.7,0,1.2-0.6,1.4-1.2l0.6-1.2
					l-1.1-7.6h1l0.8,6.5h0l3.5-6.5h1L41.4,69.6z"/>
				<path d="M59.9,58.7c-0.8-0.4-1.6-0.5-2.5-0.5c-3,0-5.1,2.3-5.1,5.3c0,2,1.6,3.6,3.8,3.6c1.3,0,1.6-0.2,2.2-0.3l-0.1,0.9
					c-0.4,0.1-0.9,0.3-2,0.3c-2.6,0-4.9-1.7-4.9-4.5c0-3.6,2.6-6.2,6.1-6.2c1.1,0,1.9,0.1,2.8,0.5L59.9,58.7z"/>
				<path d="M62,56.7h1l-2.4,11.1h-1L62,56.7z"/>
				<path d="M68.9,66.6c-0.1,0.5-0.1,0.8-0.2,1.2h-0.9c0-0.5,0.1-0.9,0.2-1.1h0c-0.5,0.8-1.5,1.3-2.4,1.3c-1.4,0-2.4-0.8-2.4-2.2
					c0-0.5,0.1-1.1,0.2-1.6l0.8-4h1l-0.9,4.2c-0.1,0.5-0.2,0.8-0.2,1.3c0,0.9,0.5,1.5,1.5,1.5c1.6,0,2.5-1.6,2.9-3.3l0.7-3.6h1
					L68.9,66.6z"/>
				<path d="M73,61.3L73,61.3c0.6-0.7,1.3-1.2,2.5-1.2c1.7,0,2.5,1.4,2.5,3c0,2.4-1.3,4.9-3.8,4.9c-1.6,0-2.1-0.8-2.3-1.5h0
					c0,0.3-0.2,0.8-0.3,1.3h-1c0.1-0.5,0.3-1,0.4-1.5l2-9.6h1L73,61.3z M72.3,64.8c0,1.3,0.5,2.4,1.9,2.4c1.9,0,2.8-2.3,2.8-4.1
					c0-1.3-0.5-2.2-1.8-2.2C73.4,60.9,72.3,63.1,72.3,64.8z"/>
				<path d="M85.8,57.5h1.8c1.9,0,3.5,0.4,3.5,2.6c0,2.2-2,3.3-4,3.3h-1.5l-1,4.5h-1L85.8,57.5z M85.7,62.4h1.2
					c1.6,0,3.1-0.6,3.1-2.4c0-1.4-1.1-1.7-2.3-1.7h-1.1L85.7,62.4z"/>
				<path d="M96.4,66c-0.1,0.6-0.3,1.3-0.3,1.8h-0.9c0-0.4,0.1-0.8,0.1-1.1h0c-0.6,0.9-1.5,1.3-2.6,1.3c-1.2,0-2.2-0.9-2.2-2.1
					c0-2.2,2.5-2.7,4.3-2.7c0.4,0,0.7,0,1,0.1c0-0.2,0-0.4,0-0.8c0-1-0.6-1.6-1.6-1.6c-0.9,0-1.7,0.4-2.2,0.7l0.1-0.9
					c0.5-0.2,1.4-0.5,2.3-0.5c1.6,0,2.5,0.9,2.5,2.5c0,0.3-0.1,0.8-0.2,1.4L96.4,66z M93.1,67.2c1.7,0,2.5-1.6,2.8-3.2
					c-0.3,0-0.6,0-0.9,0c-1.3,0-3.3,0.2-3.3,1.9C91.6,66.7,92.3,67.2,93.1,67.2z"/>
				<path d="M99.3,61.6c0.1-0.4,0.2-0.9,0.2-1.3h0.9c0,0.5-0.1,0.9-0.2,1.1h0c0.5-0.7,1.1-1.3,2.1-1.3c0.3,0,0.6,0.1,0.8,0.1l-0.2,1
					c-0.3-0.1-0.5-0.1-0.8-0.1c-1.5,0-2.1,1.7-2.4,3L99,67.8h-1L99.3,61.6z"/>
				<path d="M105.9,58.6l1.1-0.4l-0.5,2.1h2l-0.2,0.8h-1.9l-0.8,3.7c-0.1,0.5-0.2,1-0.2,1.5c0,0.6,0.3,0.9,0.9,0.9
					c0.3,0,0.5-0.1,0.8-0.2l-0.1,0.8c-0.3,0.1-0.6,0.2-0.9,0.2c-1.1,0-1.6-0.6-1.6-1.4c0-0.7,0.3-1.8,0.3-2.2l0.7-3.3h-1.5l0.2-0.8
					h1.5L105.9,58.6z"/>
				<path d="M109.5,61.5c0.1-0.5,0.1-0.8,0.2-1.2h0.9c0,0.5-0.1,0.9-0.2,1.1h0c0.5-0.8,1.5-1.3,2.4-1.3c1.4,0,2.4,0.8,2.4,2.2
					c0,0.5-0.1,1.1-0.2,1.6l-0.8,4h-1l0.9-4.2c0.1-0.5,0.2-0.8,0.2-1.3c0-0.9-0.5-1.5-1.5-1.5c-1.6,0-2.5,1.6-2.9,3.3l-0.7,3.6h-1
					L109.5,61.5z"/>
				<path d="M117.4,64.3c0,0.2,0,0.4,0,0.6c0,1.5,1,2.3,2.3,2.3c0.9,0,1.6-0.3,2.2-0.5l-0.1,0.9c-0.4,0.2-1,0.4-2.2,0.4
					c-1.8,0-3.1-1.1-3.1-3.1c0-2.5,1.5-4.8,3.9-4.8c1.8,0,2.7,1.1,2.7,2.8c0,0.5-0.1,0.9-0.1,1.4H117.4z M122,63.5
					c0-0.2,0-0.4,0-0.6c0-1.2-0.5-2-1.7-2c-1.5,0-2.5,1.2-2.8,2.6H122z"/>
				<path d="M125,61.6c0.1-0.4,0.2-0.9,0.2-1.3h0.9c0,0.5-0.1,0.9-0.2,1.1h0c0.5-0.7,1.1-1.3,2.1-1.3c0.3,0,0.6,0.1,0.8,0.1l-0.2,1
					c-0.3-0.1-0.5-0.1-0.8-0.1c-1.5,0-2.1,1.7-2.4,3l-0.8,3.7h-1L125,61.6z"/>
			</g>
		</g>
	</g>
	<text transform="matrix(1 0 0 1 47.1818 20.5919)" class="st0 st1">Belgrano</text>
</g>
</svg>
